<svg width="153" height="50" viewBox="0 0 153 50" fill="none" xmlns="http://www.w3.org/2000/svg">
<path d="M0 9.99999C0 4.47714 4.47715 0 10 0H12.4085C23.6261 0 25.2287 26.0805 32.3726 34.7292C34.4704 37.2688 38.1195 39.7624 43.75 42.1348C77.6841 56.4329 28.2243 47.6266 7.97562 43.7168C3.31785 42.8175 0 38.7317 0 33.9878V9.99999Z" fill="#62684B" fill-opacity="0.32"/>
<path d="M82.3 18.68C82.6467 18.8533 82.8467 19.1267 82.9 19.5C82.9667 19.8733 82.8733 20.2133 82.62 20.52C82.4467 20.76 82.22 20.8933 81.94 20.92C81.6733 20.9467 81.4 20.8933 81.12 20.76C80.8 20.6133 80.46 20.5 80.1 20.42C79.7533 20.34 79.3867 20.3 79 20.3C78.28 20.3 77.6333 20.4133 77.06 20.64C76.5 20.8667 76.02 21.1933 75.62 21.62C75.22 22.0333 74.9133 22.5267 74.7 23.1C74.5 23.6733 74.4 24.3067 74.4 25C74.4 25.8133 74.5133 26.52 74.74 27.12C74.98 27.72 75.3067 28.22 75.72 28.62C76.1333 29.02 76.62 29.32 77.18 29.52C77.74 29.7067 78.3467 29.8 79 29.8C79.36 29.8 79.72 29.7667 80.08 29.7C80.44 29.6333 80.7867 29.5133 81.12 29.34C81.4 29.2067 81.6733 29.16 81.94 29.2C82.22 29.24 82.4533 29.38 82.64 29.62C82.9067 29.9533 83 30.3 82.92 30.66C82.8533 31.0067 82.6533 31.26 82.32 31.42C81.9733 31.5933 81.6133 31.74 81.24 31.86C80.88 31.9667 80.5133 32.0467 80.14 32.1C79.7667 32.1667 79.3867 32.2 79 32.2C78.04 32.2 77.1267 32.0467 76.26 31.74C75.4067 31.4333 74.64 30.98 73.96 30.38C73.2933 29.78 72.7667 29.0333 72.38 28.14C71.9933 27.2333 71.8 26.1867 71.8 25C71.8 23.9733 71.9733 23.0267 72.32 22.16C72.68 21.2933 73.18 20.5467 73.82 19.92C74.4733 19.28 75.24 18.7867 76.12 18.44C77 18.08 77.96 17.9 79 17.9C79.5867 17.9 80.16 17.9667 80.72 18.1C81.28 18.2333 81.8067 18.4267 82.3 18.68ZM93.5991 21.1C93.9457 21.1 94.2324 21.2133 94.4591 21.44C94.6857 21.6667 94.7991 21.96 94.7991 22.32V30.78C94.7991 31.1267 94.6857 31.42 94.4591 31.66C94.2324 31.8867 93.9457 32 93.5991 32C93.2524 32 92.9657 31.8867 92.7391 31.66C92.5124 31.42 92.3991 31.1267 92.3991 30.78V29.8L92.8391 29.98C92.8391 30.1533 92.7457 30.3667 92.5591 30.62C92.3724 30.86 92.1191 31.1 91.7991 31.34C91.4791 31.58 91.0991 31.7867 90.6591 31.96C90.2324 32.12 89.7657 32.2 89.2591 32.2C88.3391 32.2 87.5057 31.9667 86.7591 31.5C86.0124 31.02 85.4191 30.3667 84.9791 29.54C84.5524 28.7 84.3391 27.74 84.3391 26.66C84.3391 25.5667 84.5524 24.6067 84.9791 23.78C85.4191 22.94 86.0057 22.2867 86.7391 21.82C87.4724 21.34 88.2857 21.1 89.1791 21.1C89.7524 21.1 90.2791 21.1867 90.7591 21.36C91.2391 21.5333 91.6524 21.7533 91.9991 22.02C92.3591 22.2867 92.6324 22.56 92.8191 22.84C93.0191 23.1067 93.1191 23.3333 93.1191 23.52L92.3991 23.78V22.32C92.3991 21.9733 92.5124 21.6867 92.7391 21.46C92.9657 21.22 93.2524 21.1 93.5991 21.1ZM89.5591 30C90.1457 30 90.6591 29.8533 91.0991 29.56C91.5391 29.2667 91.8791 28.8667 92.1191 28.36C92.3724 27.8533 92.4991 27.2867 92.4991 26.66C92.4991 26.02 92.3724 25.4467 92.1191 24.94C91.8791 24.4333 91.5391 24.0333 91.0991 23.74C90.6591 23.4467 90.1457 23.3 89.5591 23.3C88.9857 23.3 88.4791 23.4467 88.0391 23.74C87.5991 24.0333 87.2524 24.4333 86.9991 24.94C86.7591 25.4467 86.6391 26.02 86.6391 26.66C86.6391 27.2867 86.7591 27.8533 86.9991 28.36C87.2524 28.8667 87.5991 29.2667 88.0391 29.56C88.4791 29.8533 88.9857 30 89.5591 30ZM103.018 21.1C104.084 21.1 104.871 21.36 105.378 21.88C105.884 22.3867 106.218 23.0467 106.378 23.86L106.038 23.68L106.198 23.36C106.358 23.0533 106.604 22.7267 106.938 22.38C107.271 22.02 107.671 21.72 108.138 21.48C108.618 21.2267 109.151 21.1 109.738 21.1C110.698 21.1 111.424 21.3067 111.918 21.72C112.424 22.1333 112.771 22.6867 112.958 23.38C113.144 24.06 113.238 24.82 113.238 25.66V30.78C113.238 31.1267 113.124 31.42 112.898 31.66C112.671 31.8867 112.384 32 112.038 32C111.691 32 111.404 31.8867 111.178 31.66C110.951 31.42 110.838 31.1267 110.838 30.78V25.66C110.838 25.22 110.784 24.8267 110.678 24.48C110.571 24.12 110.378 23.8333 110.098 23.62C109.818 23.4067 109.418 23.3 108.898 23.3C108.391 23.3 107.958 23.4067 107.598 23.62C107.238 23.8333 106.964 24.12 106.778 24.48C106.604 24.8267 106.518 25.22 106.518 25.66V30.78C106.518 31.1267 106.404 31.42 106.178 31.66C105.951 31.8867 105.664 32 105.318 32C104.971 32 104.684 31.8867 104.458 31.66C104.231 31.42 104.118 31.1267 104.118 30.78V25.66C104.118 25.22 104.064 24.8267 103.958 24.48C103.851 24.12 103.658 23.8333 103.378 23.62C103.098 23.4067 102.698 23.3 102.178 23.3C101.671 23.3 101.238 23.4067 100.878 23.62C100.518 23.8333 100.244 24.12 100.058 24.48C99.8843 24.8267 99.7977 25.22 99.7977 25.66V30.78C99.7977 31.1267 99.6843 31.42 99.4577 31.66C99.231 31.8867 98.9443 32 98.5977 32C98.251 32 97.9643 31.8867 97.7377 31.66C97.511 31.42 97.3977 31.1267 97.3977 30.78V22.52C97.3977 22.1733 97.511 21.8867 97.7377 21.66C97.9643 21.42 98.251 21.3 98.5977 21.3C98.9443 21.3 99.231 21.42 99.4577 21.66C99.6843 21.8867 99.7977 22.1733 99.7977 22.52V23.38L99.4977 23.32C99.6177 23.0933 99.7843 22.8533 99.9977 22.6C100.211 22.3333 100.471 22.0867 100.778 21.86C101.084 21.6333 101.424 21.4533 101.798 21.32C102.171 21.1733 102.578 21.1 103.018 21.1ZM116.218 21.3C116.471 21.3 116.704 21.3667 116.918 21.5C117.131 21.62 117.291 21.8067 117.398 22.06L120.338 28.78L119.898 28.98L122.898 22.08C123.124 21.5467 123.478 21.2933 123.958 21.32C124.291 21.32 124.558 21.4267 124.758 21.64C124.971 21.84 125.078 22.0933 125.078 22.4C125.078 22.4933 125.058 22.5933 125.018 22.7C124.991 22.8067 124.958 22.9067 124.918 23L121.178 31.24C120.964 31.72 120.624 31.9733 120.158 32C119.904 32.04 119.658 31.9933 119.418 31.86C119.191 31.7267 119.018 31.52 118.898 31.24L115.178 23C115.151 22.9333 115.118 22.8467 115.078 22.74C115.051 22.6333 115.038 22.5067 115.038 22.36C115.038 22.12 115.144 21.8867 115.358 21.66C115.571 21.42 115.858 21.3 116.218 21.3ZM131.91 32.2C130.777 32.2 129.79 31.9667 128.95 31.5C128.124 31.02 127.484 30.3733 127.03 29.56C126.59 28.7467 126.37 27.8267 126.37 26.8C126.37 25.6 126.61 24.58 127.09 23.74C127.584 22.8867 128.224 22.2333 129.01 21.78C129.797 21.3267 130.63 21.1 131.51 21.1C132.19 21.1 132.83 21.24 133.43 21.52C134.044 21.8 134.584 22.1867 135.05 22.68C135.517 23.16 135.884 23.72 136.15 24.36C136.43 25 136.57 25.68 136.57 26.4C136.557 26.72 136.43 26.98 136.19 27.18C135.95 27.38 135.67 27.48 135.35 27.48H127.71L127.11 25.48H134.45L134.01 25.88V25.34C133.984 24.9533 133.844 24.6067 133.59 24.3C133.35 23.9933 133.044 23.7533 132.67 23.58C132.31 23.3933 131.924 23.3 131.51 23.3C131.11 23.3 130.737 23.3533 130.39 23.46C130.044 23.5667 129.744 23.7467 129.49 24C129.237 24.2533 129.037 24.5933 128.89 25.02C128.744 25.4467 128.67 25.9867 128.67 26.64C128.67 27.36 128.817 27.9733 129.11 28.48C129.417 28.9733 129.804 29.3533 130.27 29.62C130.75 29.8733 131.257 30 131.79 30C132.284 30 132.677 29.96 132.97 29.88C133.264 29.8 133.497 29.7067 133.67 29.6C133.857 29.48 134.024 29.38 134.17 29.3C134.41 29.18 134.637 29.12 134.85 29.12C135.144 29.12 135.384 29.22 135.57 29.42C135.77 29.62 135.87 29.8533 135.87 30.12C135.87 30.48 135.684 30.8067 135.31 31.1C134.964 31.3933 134.477 31.6533 133.85 31.88C133.224 32.0933 132.577 32.2 131.91 32.2ZM144.387 21.1C145.374 21.1 146.121 21.3067 146.627 21.72C147.147 22.1333 147.501 22.6867 147.687 23.38C147.887 24.06 147.987 24.82 147.987 25.66V30.78C147.987 31.1267 147.874 31.42 147.647 31.66C147.421 31.8867 147.134 32 146.787 32C146.441 32 146.154 31.8867 145.927 31.66C145.701 31.42 145.587 31.1267 145.587 30.78V25.66C145.587 25.22 145.527 24.8267 145.407 24.48C145.301 24.12 145.101 23.8333 144.807 23.62C144.514 23.4067 144.094 23.3 143.547 23.3C143.014 23.3 142.561 23.4067 142.187 23.62C141.827 23.8333 141.547 24.12 141.347 24.48C141.161 24.8267 141.067 25.22 141.067 25.66V30.78C141.067 31.1267 140.954 31.42 140.727 31.66C140.501 31.8867 140.214 32 139.867 32C139.521 32 139.234 31.8867 139.007 31.66C138.781 31.42 138.667 31.1267 138.667 30.78V22.52C138.667 22.1733 138.781 21.8867 139.007 21.66C139.234 21.42 139.521 21.3 139.867 21.3C140.214 21.3 140.501 21.42 140.727 21.66C140.954 21.8867 141.067 22.1733 141.067 22.52V23.38L140.767 23.32C140.887 23.0933 141.061 22.8533 141.287 22.6C141.514 22.3333 141.781 22.0867 142.087 21.86C142.394 21.6333 142.741 21.4533 143.127 21.32C143.514 21.1733 143.934 21.1 144.387 21.1ZM152.841 30.78C152.841 31.1267 152.728 31.42 152.501 31.66C152.275 31.8867 151.988 32 151.641 32C151.295 32 151.008 31.8867 150.781 31.66C150.555 31.42 150.441 31.1267 150.441 30.78V22.52C150.441 22.1733 150.555 21.8867 150.781 21.66C151.008 21.42 151.295 21.3 151.641 21.3C151.988 21.3 152.275 21.42 152.501 21.66C152.728 21.8867 152.841 22.1733 152.841 22.52V30.78ZM151.621 20C151.168 20 150.848 19.9267 150.661 19.78C150.475 19.6333 150.381 19.3733 150.381 19V18.62C150.381 18.2333 150.481 17.9733 150.681 17.84C150.895 17.6933 151.215 17.62 151.641 17.62C152.108 17.62 152.435 17.6933 152.621 17.84C152.808 17.9867 152.901 18.2467 152.901 18.62V19C152.901 19.3867 152.801 19.6533 152.601 19.8C152.401 19.9333 152.075 20 151.621 20Z" fill="white"/>
</svg>
